<svg width="20" height="24" viewBox="0 0 20 24" fill="none" xmlns="http://www.w3.org/2000/svg">
<path d="M11.9301 20.3436C12.2565 20.0569 12.7574 20.0391 13.1059 20.3205C13.4893 20.6299 13.543 21.1842 13.226 21.5583C12.4444 22.556 11.2352 23.1461 9.94853 23.1579L9.69309 23.1473C8.50685 23.0626 7.40894 22.4869 6.68154 21.5583L6.60424 21.4521C6.37699 21.0854 6.45308 20.6018 6.80158 20.3205C7.18492 20.011 7.7527 20.0634 8.06975 20.4376C8.20899 20.6193 8.3742 20.7806 8.56032 20.9165C9.05782 21.278 9.68258 21.4308 10.2959 21.3409C10.9093 21.251 11.4605 20.9258 11.8273 20.4376H11.8377L11.9301 20.3436ZM9.95897 0C13.5704 0 17.6202 2.50631 18.0795 6.53067V8.62945C18.2363 9.38695 18.5965 10.0902 19.1232 10.6671C19.1544 10.7019 19.1824 10.7395 19.2067 10.7792C19.6843 11.4868 19.9583 12.3066 20 13.153L19.9687 13.367C20.0047 14.5252 19.6119 15.6573 18.8623 16.5559C17.905 17.5725 16.5964 18.2076 15.1882 18.3389C11.7196 18.7136 8.2192 18.7136 4.75057 18.3389C3.36299 18.1986 2.07714 17.5638 1.13914 16.5559C0.377195 15.6702 -0.0273564 14.5435 0.00143774 13.3874V13.2447C0.0588232 12.373 0.354359 11.5322 0.857326 10.8097L0.940827 10.7079C1.4639 10.1285 1.8236 9.42628 1.98459 8.6702V6.57142L2.04231 6.45418C2.21779 6.15652 2.55957 5.98242 2.91752 6.02054C3.32021 6.06342 3.64358 6.36425 3.70681 6.75481V8.85359C3.71087 8.89084 3.71087 8.92841 3.70681 8.96566C3.48948 10.0167 2.99273 10.9935 2.26641 11.798C1.9867 12.2329 1.82838 12.7316 1.80715 13.2447V13.4689C1.78398 14.1905 2.02862 14.896 2.49604 15.4556C3.14408 16.1089 4.01067 16.5138 4.93845 16.5967C8.29643 16.9533 11.6841 16.9533 15.0421 16.5967C15.9952 16.5113 16.883 16.0871 17.5367 15.4046C17.9812 14.8583 18.214 14.1764 18.1943 13.4791V13.2447C18.1729 12.7299 18.0185 12.2288 17.7455 11.7878C16.9889 10.9925 16.4629 10.0149 16.2216 8.95547C16.2175 8.91822 16.2175 8.88065 16.2216 8.8434V6.73443C15.9189 3.65758 12.7771 1.75238 10.0425 1.75238C8.87983 1.74977 7.73632 2.0411 6.72329 2.598L6.59922 2.65862C6.34415 2.75999 6.05232 2.74219 5.80978 2.6046C5.52681 2.44408 5.35578 2.14596 5.36342 1.82658C5.37107 1.50721 5.55619 1.21721 5.84653 1.06977C7.10181 0.377556 8.51725 0.00935894 9.95897 0Z" fill="black"/>
</svg>
